<?xml version="1.0" encoding="utf-8"?>
<!-- Generator: Adobe Illustrator 16.0.0, SVG Export Plug-In . SVG Version: 6.00 Build 0)  -->
<!DOCTYPE svg PUBLIC "-//W3C//DTD SVG 1.1//EN" "http://www.w3.org/Graphics/SVG/1.1/DTD/svg11.dtd">
<svg version="1.1" id="Layer_1" xmlns="http://www.w3.org/2000/svg" xmlns:xlink="http://www.w3.org/1999/xlink" x="0px" y="0px"
	 width="850px" height="141.463px" viewBox="0 0 850 141.463" enable-background="new 0 0 850 141.463" xml:space="preserve">
<g>
	<g>
		<g>
			<path fill="#FFFFFF" d="M8.517,45.443h35.065v83.125h33.714V45.443h35.664V12.746H8.517V45.443z M123,128.717h105.49V96.163H123
				V128.717z M123,87.008h105.49V54.309H123V87.008z M123,45.445h105.49V12.746H123V45.445z M297.232,12.893l-24.877,24.123V12.746
				h-33.714v115.822h33.714v-24.412l24.877,24.268h47.65l-60.089-57.839l60.089-57.692H297.232z M550.495,12.746h-37.013
				l-57.388,115.971h37.009l7.944-16.279h52.326l-16.032-32.551h-20.113l14.684-29.791l17.384,34.878l21.578,43.743h37.013
				l-29.819-60.166L550.495,12.746z M690.735,69.858l-9.741-14.242l-29.517-42.87H617.76v115.822h33.717V70.876l3.444,5.085
				l35.813,52.755l0.9-0.148h32.814V12.746h-33.715V69.858z M841.484,12.893h-47.65l-24.876,24.123V12.746h-33.715v115.822h33.715
				v-24.412l24.876,24.268h47.65l-60.089-57.839L841.484,12.893z M381.024,45.259L414.4,12.893h-0.897l-4.042-0.146l-33.376,32.513
				H381.024z M391.05,45.259l32.178-31.205c-1.346-0.437-2.694-0.582-4.188-0.874l-32.928,32.078H391.05z M410.956,45.259
				l25.74-24.966c-1.046-0.725-1.943-1.304-2.989-2.032l-27.69,26.998H410.956z M371.145,45.259l33.377-32.513h-4.938
				l-33.377,32.513H371.145z M400.928,45.259l29.483-28.594c-1.046-0.578-2.241-1.015-3.44-1.453l-30.982,30.047H400.928z
				 M353.038,12.746v1.741l1.647-1.741H353.038z M361.119,45.259l33.525-32.513h-5.089l-33.376,32.513H361.119z M459.895,89.816
				c-0.447-9.288-4.493-18.142-11.226-24.674c1.95-4.353,3.143-8.854,3.298-13.642c0.441-10.161-3.444-19.887-10.781-27.288
				c0,0,0,0-0.148-0.145c-0.449-0.583-1.047-1.016-1.645-1.598l-24.246,23.513c0.598,0.437,1.195,1.016,1.645,1.741
				c0,0.148,0,0.292,0.152,0.437c0,0,0,0,0,0.146c0,0.145,0,0.145,0.146,0.287v0.146c0,0.292,0.148,0.728,0.148,1.016v0.145
				c0,2.614-2.092,4.644-4.785,4.644h-59.416v32.369h65.853c2.544,0,4.637,2.033,4.637,4.502c0,2.466-2.093,4.497-4.637,4.497
				h-65.853v32.658h70.791l0.146-0.147c9.579-0.433,18.407-4.5,25.296-11.319C456.455,109.847,460.344,100.122,459.895,89.816z
				 M379.678,12.746l-26.641,25.98v4.791l31.579-30.771H379.678z M369.651,12.746l-16.613,16.257v4.788l21.549-21.045H369.651z
				 M359.773,12.746l-6.735,6.676v4.792l11.675-11.467H359.773z"/>
		</g>
	</g>
</g>
</svg>
